# xmcd
#
# Track frame offsets:
#	150
#	14393
#	30838
#	46315
#	62993
#	78648
#	99550
#	117495
#	133173
#	150850
#	170595
#
# Disc length: 2628 seconds
#
# Revision: 0
# Processed by: cddbd v1.4PL0 Copyright (c) Steve Scherf et al.
# Submitted via: dBpowerAMP V4.0
#
DISCID=880a420b
DTITLE=1st Revolution Orchestra - 1st Revolution Orchestra
DYEAR=1991
DGENRE=Country
TTITLE0=Jonas Fjeld - Double Dating
TTITLE1=Kristin Reitan - Broken Rose
TTITLE2=Ottar Big Hand Johansen - He`s Coming Home
TTITLE3=Claudia Scott - Hard Days
TTITLE4=Lasse Hafreager - When I Paint My Masterpiece
TTITLE5=Sol Stene - Three Times As Bad
TTITLE6=Ottar Big Hand Johansen - Diggin` For Love
TTITLE7=Jonas Fjeld - Wandering
TTITLE8=Claudia Scott and Lasse Hafreager - Stop The Love From Going
TTITLE9=Jørun Bøgeberg - On Top Of The Lovers Throne
TTITLE10=Casino Steel - The Show Is Over
EXTD=
EXTT0=
EXTT1=
EXTT2=
EXTT3=
EXTT4=
EXTT5=
EXTT6=
EXTT7=
EXTT8=
EXTT9=
EXTT10=
PLAYORDER=
